<svg width="795" height="574" viewBox="0 0 795 574" fill="none" xmlns="http://www.w3.org/2000/svg">
<g clip-path="url(#clip0_2406_312)">
<path d="M34.4535 289.409C43.064 272.047 47.934 256.925 45.3309 255.633C42.7278 254.341 33.6374 267.368 25.0269 284.729C16.4164 302.091 11.5464 317.212 14.1495 318.505C16.7526 319.797 25.843 306.77 34.4535 289.409Z" fill="#E0E0E0"/>
<path d="M471.245 506.431C479.855 489.07 485.402 474.284 483.633 473.406C481.864 472.528 473.45 485.89 464.84 503.252C456.229 520.613 450.683 535.399 452.452 536.277C454.22 537.155 462.634 523.793 471.245 506.431Z" fill="#E0E0E0"/>
<path d="M236.525 418.663L220.297 405.257L175.628 459.376L191.857 472.783L236.525 418.663Z" fill="#F55F44"/>
<path opacity="0.05" d="M199.205 477.1L222.257 482.523L238.314 414.201L215.262 408.778L199.205 477.1Z" fill="black"/>
<path d="M201.77 477.703L222.257 482.522L238.314 414.201L217.827 409.382L201.77 477.703Z" fill="#F55F44"/>
<path d="M46.1104 254.062L13.3699 320.076L451.709 537.66L484.449 471.645L46.1104 254.062Z" fill="url(#paint0_linear_2406_312)"/>
<path d="M452.488 536.088C443.909 531.971 7.865 315.385 14.1494 318.505C38.3511 281.55 45.3309 255.633 45.3309 255.633L483.67 473.217C483.67 473.217 468.276 500.244 452.488 536.088Z" fill="#F5F5F5"/>
<path opacity="0.05" d="M273.141 368.715L237.006 350.778L205.825 413.649L241.96 431.586L273.141 368.715Z" fill="black"/>
<path d="M271.57 367.935L238.577 351.557L207.396 414.429L240.389 430.806L271.57 367.935Z" fill="#F55F44"/>
<path opacity="0.05" d="M265.286 364.815L243.29 353.897L212.109 416.768L234.104 427.686L265.286 364.815Z" fill="black"/>
<path d="M263.715 364.035L244.861 354.677L213.68 417.548L232.533 426.907L263.715 364.035Z" fill="#F55F44"/>
<path d="M261.176 566.813C262.791 566.813 264.1 565.503 264.1 563.888C264.1 562.272 262.791 560.962 261.176 560.962C259.561 560.962 258.252 562.272 258.252 563.888C258.252 565.503 259.561 566.813 261.176 566.813Z" fill="#DBDBDB"/>
<g opacity="0.5">
<path d="M32.3783 481.968H29.3798V498.967H32.3783V481.968Z" fill="#47E6B1"/>
<path d="M39.3748 491.967V488.968H22.3832V491.967H39.3748Z" fill="#47E6B1"/>
</g>
<g opacity="0.5">
<path d="M788.003 269.982H785.005V286.981H788.003V269.982Z" fill="#47E6B1"/>
<path d="M795 279.981V276.982H778.008V279.981H795Z" fill="#47E6B1"/>
</g>
<g opacity="0.5">
<path d="M50.3694 58.9961H47.3708V75.995H50.3694V58.9961Z" fill="#47E6B1"/>
<path d="M57.3658 68.9954V65.9956H40.3743V68.9954H57.3658Z" fill="#47E6B1"/>
</g>
<g opacity="0.5">
<path d="M698.048 32.9978H695.05V49.9967H698.048V32.9978Z" fill="#47E6B1"/>
<path d="M705.045 42.9971V39.9973H688.053V42.9971H705.045Z" fill="#47E6B1"/>
</g>
<path opacity="0.5" d="M12.2835 253.44C11.4572 253.079 10.7921 252.428 10.4147 251.609C10.0373 250.79 9.97411 249.861 10.2371 248.999C10.2796 248.867 10.3064 248.73 10.3169 248.591C10.341 248.196 10.2371 247.804 10.0209 247.472C9.80457 247.141 9.4873 246.888 9.11605 246.751C8.7448 246.614 8.33931 246.6 7.95964 246.712C7.57997 246.823 7.24633 247.054 7.00812 247.37C6.9262 247.482 6.85779 247.604 6.80431 247.732C6.44443 248.559 5.79327 249.224 4.97478 249.602C4.15628 249.979 3.22761 250.042 2.36552 249.779C2.23336 249.737 2.09662 249.71 1.95818 249.699C1.5632 249.675 1.17099 249.779 0.839636 249.996C0.508278 250.212 0.2554 250.529 0.118451 250.901C-0.0184986 251.272 -0.0322294 251.678 0.0792857 252.058C0.190801 252.438 0.421627 252.771 0.73759 253.01C0.849696 253.092 0.971076 253.16 1.09921 253.214C1.92554 253.574 2.59069 254.225 2.96805 255.044C3.34541 255.863 3.40863 256.792 3.14568 257.654C3.10313 257.786 3.07632 257.923 3.06581 258.062C3.04177 258.457 3.14559 258.849 3.36188 259.181C3.57818 259.512 3.89544 259.765 4.26669 259.902C4.63794 260.039 5.04344 260.053 5.4231 259.941C5.80277 259.83 6.13641 259.599 6.37463 259.283C6.45655 259.171 6.52495 259.049 6.57843 258.921C6.93831 258.094 7.58947 257.429 8.40796 257.051C9.22646 256.674 10.1551 256.611 11.0172 256.874C11.1494 256.916 11.2861 256.943 11.4246 256.954C11.8195 256.978 12.2118 256.874 12.5431 256.657C12.8745 256.441 13.1274 256.124 13.2643 255.752C13.4013 255.381 13.415 254.975 13.3035 254.595C13.192 254.216 12.9611 253.882 12.6452 253.643C12.533 253.561 12.4117 253.493 12.2835 253.44Z" fill="#4D8AF0"/>
<path opacity="0.5" d="M184.198 56.4526C183.372 56.0925 182.707 55.4411 182.33 54.6222C181.952 53.8034 181.889 52.8743 182.152 52.0119C182.194 51.8796 182.221 51.7428 182.232 51.6043C182.256 51.2092 182.152 50.8168 181.936 50.4853C181.719 50.1538 181.402 49.9008 181.031 49.7638C180.66 49.6268 180.254 49.613 179.874 49.7246C179.495 49.8362 179.161 50.0671 178.923 50.3832C178.841 50.4954 178.773 50.6168 178.719 50.745C178.359 51.5717 177.708 52.2371 176.89 52.6147C176.071 52.9922 175.142 53.0554 174.28 52.7924C174.148 52.7498 174.011 52.723 173.873 52.7125C173.478 52.6884 173.086 52.7923 172.754 53.0087C172.423 53.225 172.17 53.5424 172.033 53.9139C171.896 54.2853 171.883 54.6909 171.994 55.0707C172.106 55.4506 172.336 55.7844 172.652 56.0227C172.765 56.1046 172.886 56.1731 173.014 56.2266C173.84 56.5866 174.505 57.2381 174.883 58.0569C175.26 58.8757 175.323 59.8048 175.06 60.6673C175.018 60.7995 174.991 60.9363 174.981 61.0748C174.957 61.4699 175.06 61.8623 175.277 62.1938C175.493 62.5253 175.81 62.7783 176.181 62.9153C176.553 63.0523 176.958 63.0661 177.338 62.9545C177.718 62.8429 178.051 62.612 178.289 62.2959C178.371 62.1837 178.44 62.0623 178.493 61.9341C178.853 61.1074 179.504 60.442 180.323 60.0645C181.141 59.687 182.07 59.6237 182.932 59.8868C183.064 59.9293 183.201 59.9562 183.339 59.9667C183.734 59.9907 184.127 59.8869 184.458 59.6705C184.789 59.4541 185.042 59.1367 185.179 58.7653C185.316 58.3939 185.33 57.9882 185.218 57.6084C185.107 57.2286 184.876 56.8948 184.56 56.6564C184.448 56.5745 184.326 56.5061 184.198 56.4526Z" fill="#4D8AF0"/>
<path opacity="0.5" d="M394.094 567.419C393.268 567.059 392.603 566.407 392.225 565.588C391.848 564.77 391.785 563.84 392.048 562.978C392.09 562.846 392.117 562.709 392.128 562.57C392.152 562.175 392.048 561.783 391.832 561.451C391.615 561.12 391.298 560.867 390.927 560.73C390.555 560.593 390.15 560.579 389.77 560.691C389.391 560.802 389.057 561.033 388.819 561.349C388.737 561.462 388.668 561.583 388.615 561.711C388.255 562.538 387.604 563.203 386.785 563.581C385.967 563.958 385.038 564.022 384.176 563.758C384.044 563.716 383.907 563.689 383.769 563.679C383.374 563.655 382.982 563.758 382.65 563.975C382.319 564.191 382.066 564.509 381.929 564.88C381.792 565.251 381.778 565.657 381.89 566.037C382.001 566.417 382.232 566.75 382.548 566.989C382.66 567.071 382.782 567.139 382.91 567.193C383.736 567.553 384.401 568.204 384.779 569.023C385.156 569.842 385.219 570.771 384.956 571.633C384.914 571.766 384.887 571.902 384.877 572.041C384.852 572.436 384.956 572.828 385.173 573.16C385.389 573.491 385.706 573.744 386.077 573.881C386.449 574.018 386.854 574.032 387.234 573.921C387.613 573.809 387.947 573.578 388.185 573.262C388.267 573.15 388.336 573.028 388.389 572.9C388.749 572.074 389.4 571.408 390.219 571.031C391.037 570.653 391.966 570.59 392.828 570.853C392.96 570.895 393.097 570.922 393.235 570.933C393.63 570.957 394.022 570.853 394.354 570.637C394.685 570.42 394.938 570.103 395.075 569.731C395.212 569.36 395.226 568.954 395.114 568.575C395.003 568.195 394.772 567.861 394.456 567.623C394.344 567.541 394.222 567.472 394.094 567.419Z" fill="#4D8AF0"/>
<path opacity="0.5" d="M759.018 449.97C762.33 449.97 765.015 447.284 765.015 443.971C765.015 440.657 762.33 437.971 759.018 437.971C755.706 437.971 753.021 440.657 753.021 443.971C753.021 447.284 755.706 449.97 759.018 449.97Z" fill="#F55F44"/>
<path opacity="0.5" d="M627.083 487.968C630.395 487.968 633.08 485.282 633.08 481.968C633.08 478.655 630.395 475.969 627.083 475.969C623.771 475.969 621.086 478.655 621.086 481.968C621.086 485.282 623.771 487.968 627.083 487.968Z" fill="#4D8AF0"/>
<path opacity="0.5" d="M103.343 546.964C106.655 546.964 109.34 544.278 109.34 540.964C109.34 537.651 106.655 534.965 103.343 534.965C100.031 534.965 97.3461 537.651 97.3461 540.964C97.3461 544.278 100.031 546.964 103.343 546.964Z" fill="#47E6B1"/>
<path opacity="0.5" d="M411.19 11.9992C414.502 11.9992 417.187 9.31309 417.187 5.9996C417.187 2.68611 414.502 0 411.19 0C407.878 0 405.193 2.68611 405.193 5.9996C405.193 9.31309 407.878 11.9992 411.19 11.9992Z" fill="#F55F44"/>
<path d="M204.793 357.476L180.805 393.474C180.805 393.474 188.801 430.472 365.713 429.472C542.625 428.472 556.618 393.474 556.618 393.474L523.635 345.477L422.685 276.482L204.793 357.476Z" fill="#0E6BA8"/>
<path opacity="0.15" d="M204.793 357.476L180.805 393.474C180.805 393.474 188.801 430.472 365.713 429.472C542.625 428.472 556.618 393.474 556.618 393.474L523.635 345.477L422.685 276.482L204.793 357.476Z" fill="black"/>
<path d="M715.039 223.985L400.195 362.976L16.3859 223.985L368.211 63.9958L540.916 143.66L547.103 146.52L715.039 223.985Z" fill="#0E6BA8"/>
<path opacity="0.15" d="M715.039 223.985L400.195 362.976L16.3859 223.985L368.211 63.9958L540.916 143.66L547.103 146.52L715.039 223.985Z" fill="black"/>
<path d="M553.619 257.303L547.622 257.663L540.916 143.66L547.103 146.52L553.619 257.303Z" fill="#F5F5F5"/>
<path d="M208.791 223.485L180.805 393.474C180.805 393.474 381.705 328.478 556.618 393.474L530.631 213.486C530.631 213.486 295.748 184.488 208.791 223.485Z" fill="#0E6BA8"/>
<path d="M553.12 291.981C569.128 291.981 582.106 283.027 582.106 271.982C582.106 260.937 569.128 251.983 553.12 251.983C537.112 251.983 524.134 260.937 524.134 271.982C524.134 283.027 537.112 291.981 553.12 291.981Z" fill="#F5F5F5"/>
</g>
<defs>
<linearGradient id="paint0_linear_2406_312" x1="232.539" y1="428.868" x2="265.302" y2="362.865" gradientUnits="userSpaceOnUse">
<stop stop-color="#808080" stop-opacity="0.25"/>
<stop offset="0.53514" stop-color="#808080" stop-opacity="0.12"/>
<stop offset="1" stop-color="#808080" stop-opacity="0.1"/>
</linearGradient>
<clipPath id="clip0_2406_312">
<rect width="795" height="574" fill="white"/>
</clipPath>
</defs>
</svg>
