<svg width="42" height="48" viewBox="0 0 42 48" fill="none" xmlns="http://www.w3.org/2000/svg">
<path d="M33.8941 41.872H8.10609V39.32H33.8941V41.872ZM38.9461 0H16.0221V13.02H16.2301C18.2021 10.468 20.6421 10.22 23.3061 10.408C27.2401 10.642 31.0861 13.1 31.3401 20.746V35.39C31.3401 35.568 31.2401 35.744 31.0641 35.744H26.4841C26.3041 35.744 25.9781 35.58 25.9781 35.39V21.2C25.9781 17.634 24.8181 14.97 21.2961 14.97C18.7321 14.97 16.0221 16.754 16.0221 20.51V35.344C16.0221 35.522 16.0061 35.488 15.8181 35.488H11.2381C11.0581 35.488 10.6581 35.532 10.6581 35.344V0H3.35609C1.67009 0 0.194092 1.346 0.194092 3.03V45.022C0.194092 46.708 1.67009 48 3.35409 48H38.9481C40.6341 48 41.8101 46.708 41.8101 45.022V3.03C41.8101 1.346 40.6341 0 38.9501 0" fill="white"/>
</svg>
