<svg width="36" height="48" viewBox="0 0 36 48" fill="none" xmlns="http://www.w3.org/2000/svg">
<path d="M16.5139 0.00799129C15.7739 0.0279913 15.0439 0.0879913 14.3139 0.197991C13.2339 0.305991 12.1539 0.847991 10.9639 1.38799C9.4499 2.03599 7.9339 2.68599 6.5279 2.79399C4.1479 3.54999 3.3919 4.63199 2.7439 5.49599C2.7439 5.60399 2.6359 5.71199 2.6359 5.71199C1.7699 7.44199 1.6619 9.17199 1.9859 10.902C2.3099 11.984 2.7419 12.96 3.0659 13.932C3.8259 15.988 4.5819 17.932 4.9059 20.204C5.2319 20.854 5.5539 21.718 5.7699 22.584C6.3099 24.314 6.8539 26.26 8.4759 27.774L8.4879 27.768C8.5219 27.806 8.5479 27.848 8.5839 27.882L8.6259 27.862L8.5859 26.694C9.8819 24.746 11.7179 23.448 14.3139 22.908C15.3539 22.688 16.4759 22.608 17.6399 22.652C18.8517 22.6847 20.0568 22.8429 21.2359 23.124C24.1559 23.88 26.4259 25.396 26.5359 26.694C26.5899 27.402 26.6159 28.084 26.5999 28.766C26.5999 28.894 26.5919 29.022 26.5859 29.152L26.8579 29.288C27.0217 29.1934 27.1624 29.0636 27.2699 28.908L27.2759 28.902L27.2879 28.886C27.3679 28.778 27.4379 28.638 27.5079 28.498C27.5479 28.424 27.5839 28.326 27.6199 28.24C28.0299 27.316 28.3439 25.934 28.6959 24.314C28.8039 23.774 28.9159 23.34 29.0219 22.908C29.8879 20.962 31.0759 19.232 32.2659 17.608C34.2119 14.908 36.0499 12.418 35.8339 9.49799C32.2659 2.57599 27.2899 1.49399 24.6939 0.953991C24.2619 0.845991 24.0479 0.845991 23.7239 0.737991C21.0479 0.249991 18.7359 -0.0540087 16.5139 0.00799129ZM26.5999 28.766C26.6113 28.11 26.5899 27.4538 26.5359 26.8C26.4279 25.394 24.1559 23.88 21.1279 23.124C19.9823 22.8595 18.8146 22.7015 17.6399 22.652C16.5968 22.617 15.5532 22.7029 14.5299 22.908C12.0419 23.448 10.0979 24.748 8.9079 26.692L9.0099 29.554C10.3439 28.844 12.4759 27.806 15.2899 27.554C15.4199 27.544 15.5619 27.544 15.6979 27.536C15.9319 27.51 16.2299 27.448 16.5859 27.448C19.7999 27.448 23.1219 28.516 26.3399 30.744C26.4179 30.196 26.4599 29.646 26.4799 29.098L26.5699 29.144C26.5739 29.018 26.5979 28.89 26.5999 28.764V28.766ZM16.5119 0.115991C16.7599 0.107991 17.0199 0.135991 17.2699 0.137991C16.8099 0.133991 16.3519 0.143991 15.8959 0.169991C16.1019 0.157991 16.3059 0.121991 16.5119 0.115991ZM14.8799 0.259991C14.7279 0.277991 14.5739 0.285991 14.4219 0.307991C12.7879 0.541991 10.8739 1.70999 8.9219 2.39799C9.6319 2.13399 10.3499 1.80599 11.0719 1.49799C12.1519 0.957991 13.3419 0.415991 14.3139 0.307991C14.5019 0.279991 14.6919 0.281991 14.8799 0.259991ZM14.4219 0.739991C14.7459 0.739991 15.1799 0.739991 15.5039 0.847991C15.2612 0.79244 15.0101 0.782943 14.7639 0.819991C14.9798 0.835968 15.1925 0.881735 15.3959 0.955991C16.5559 2.95599 14.5439 11.514 14.0379 17.254C14.3029 19.0745 14.6117 20.8883 14.9639 22.694C13.5579 19.126 12.1519 12.852 11.9339 7.98599C11.8259 6.03999 11.9359 4.30799 12.3699 3.01199C12.7999 1.70999 13.4499 0.845991 14.4199 0.737991L14.4219 0.739991ZM20.6939 1.27999C19.0739 5.49999 18.8579 13.5 18.7499 15.988C18.6419 17.068 18.7499 19.448 18.8579 21.178C18.8579 21.61 18.9659 22.042 18.9659 22.476C18.9659 22.042 18.8579 21.718 18.8579 21.286C17.9919 14.798 16.9099 7.01399 20.6939 1.28199V1.27999ZM27.3979 2.03799C26.8579 6.36199 24.5879 8.41799 23.8319 12.638C23.6159 15.99 23.1819 19.882 23.0739 23.234C22.9659 19.882 23.0739 16.314 23.6139 12.744C24.1539 9.06799 25.3439 5.38999 27.3979 2.03799ZM7.0599 3.29399C7.50613 3.28891 7.93671 3.45827 8.2599 3.76599L8.2319 3.75199C8.4979 3.93599 8.7639 4.16999 9.0179 4.51999C8.6099 6.45599 9.5279 10.584 9.0979 13.86C9.2499 16.956 9.2399 20.22 10.7959 22.778C8.8359 19.758 8.4439 15.902 8.1519 12.306C7.9259 10.126 7.7439 8.11199 7.2239 6.49999C6.9359 5.88999 6.6859 5.34999 6.4559 4.85599C6.4079 4.78199 6.3679 4.69799 6.3159 4.62799C6.11995 4.42433 6.00478 4.15632 5.9919 3.87399C5.9919 3.76599 6.0979 3.54999 6.2079 3.54999C6.3159 3.44199 6.5299 3.43799 6.6379 3.32999C6.77627 3.30342 6.91703 3.29135 7.0579 3.29399H7.0599ZM4.3659 4.51999C4.2459 4.55999 4.1819 4.60199 4.0859 4.64199C4.4399 4.57399 4.8099 4.70999 5.1259 5.27799C4.7499 7.06199 5.9979 12.016 5.9819 15.486C6.6079 19.182 7.0819 23.186 9.1259 25.716C6.7459 23.014 5.7739 18.256 5.0179 14.254C4.3679 11.118 3.8259 8.41399 2.7459 7.54999C2.6379 7.33399 2.5299 7.22399 2.5299 7.00799C2.5299 6.68399 2.5299 6.24999 2.7459 5.81799C2.1919 7.08599 1.9359 8.35199 2.0059 9.61999C1.92404 8.31027 2.17879 7.0014 2.7459 5.81799C2.7459 5.70999 2.8539 5.70999 2.8539 5.60199C2.8779 5.56999 2.9159 5.53199 2.9419 5.49999C3.0574 5.30067 3.21098 5.12602 3.3939 4.98599C3.5039 4.86399 3.5859 4.74599 3.7119 4.62199C3.6059 4.73399 3.5359 4.84199 3.4439 4.95199C3.4979 4.91599 3.5479 4.87799 3.6119 4.84799C3.70632 4.74197 3.82265 4.65772 3.95284 4.60109C4.08303 4.54446 4.22397 4.51678 4.3659 4.51999ZM3.6119 4.84799C3.6039 4.86199 3.5959 4.86799 3.5879 4.88399L3.6619 4.82399L3.6119 4.84799ZM33.1319 7.11599L33.1219 7.14599C33.1979 7.13599 33.2719 7.11199 33.3479 7.11599C33.2739 7.11199 33.1959 7.13599 33.1179 7.15599C31.3919 12.44 29.3439 17.724 27.2959 23.008C27.2948 23.0101 27.2934 23.0121 27.2919 23.014C27.1179 23.944 26.8239 24.782 26.2119 25.394C27.0779 24.42 27.1839 23.012 27.2919 21.282C27.3999 19.66 27.3999 17.93 28.2659 16.198C28.2659 16.092 28.2679 15.988 28.3719 15.88L28.3739 15.876C28.5679 15.17 28.7779 14.498 29.0079 13.84C29.8439 11.26 31.2879 7.50799 33.0339 7.15999C33.0659 7.14799 33.1019 7.12199 33.1339 7.11599H33.1319ZM10.7479 32.42L10.0999 32.636C10.4239 33.07 10.6399 33.396 10.8559 33.502C11.0861 33.6374 11.347 33.7117 11.6139 33.718C11.7219 33.718 11.9359 33.718 12.0439 33.61L13.6679 33.07C13.7759 33.07 13.8839 32.962 13.9919 32.962C14.2079 32.962 14.3159 32.962 14.5319 33.07L15.0739 33.61L15.6139 33.502C15.3979 33.178 15.0739 32.856 14.8579 32.748C14.6419 32.64 14.4239 32.528 14.0999 32.528H13.8839L12.1519 33.178H11.8299C11.6119 33.178 11.3979 33.178 11.2899 33.07C11.1819 32.962 10.9639 32.746 10.7479 32.42ZM5.5559 33.502C5.0159 33.826 4.2579 34.368 3.1759 34.8C2.0959 35.232 1.2299 35.666 0.795902 36.098C0.365902 36.53 0.149902 36.962 0.149902 37.396C0.149902 37.612 0.257902 37.722 0.473902 37.83C0.581902 37.938 0.799902 37.938 0.907902 38.046C2.41634 38.7003 3.89511 39.421 5.3399 40.206C5.5579 40.314 5.7739 40.532 5.8839 40.64C5.9919 40.748 6.0979 40.748 6.2059 40.748C6.4239 40.748 6.7459 40.642 6.9619 40.424C7.1779 40.208 7.2879 39.99 7.2879 39.774C7.2879 39.558 7.1779 39.452 6.9619 39.344C6.9619 39.344 6.0959 38.91 4.5819 38.262C3.76848 37.9096 2.97525 37.5124 2.2059 37.072C2.5299 36.532 3.1779 36.098 4.1519 35.666C5.2319 35.234 5.9919 34.8 6.3139 34.476C6.4219 34.368 6.4219 34.26 6.4219 34.152C6.39505 33.9889 6.31979 33.8377 6.2059 33.718C6.05785 33.5832 5.86606 33.5065 5.6659 33.502H5.5559ZM28.0499 33.502C27.8874 33.5287 27.7368 33.604 27.6179 33.718C27.5099 33.934 27.3999 34.044 27.3999 34.152V34.26C27.7239 34.584 28.1599 34.8 28.8079 35.016C29.3479 35.124 29.8879 35.342 30.4299 35.45C31.0779 35.666 31.5099 35.99 31.7279 36.422V36.532C31.7279 36.64 31.5099 36.856 31.0779 37.072C30.8619 37.18 30.4279 37.506 29.8879 37.938C29.3479 38.262 29.0219 38.584 28.6979 38.692C28.2659 38.91 27.9419 39.126 27.8339 39.344C27.7259 39.452 27.7259 39.558 27.7259 39.666C27.7259 39.882 27.8339 39.882 27.9419 40.098C28.0499 40.314 28.2659 40.318 28.3739 40.318C28.4819 40.318 28.5899 40.206 28.6979 40.206C29.2379 39.882 29.9979 39.45 30.8619 38.692C31.8339 37.936 32.5919 37.396 33.0259 37.072C33.4579 36.856 33.6719 36.638 33.6719 36.312C33.6719 36.206 33.6719 35.99 33.4559 35.882C32.6999 35.016 31.6199 34.478 30.3219 34.044C30.1059 33.936 29.7819 33.826 29.1319 33.718C28.8079 33.61 28.4819 33.502 28.2659 33.502H28.0499ZM22.1019 35.122C21.5619 35.122 21.1279 35.234 20.8039 35.558C20.3719 35.882 20.2639 36.422 20.3719 37.072C20.3719 37.612 20.5879 38.044 20.9119 38.478C21.2359 38.91 21.6699 39.128 22.1019 39.128C22.4259 39.128 22.6419 39.016 22.9679 38.908C23.5079 38.584 23.7259 38.044 23.7259 37.072C23.7259 36.314 23.5079 35.774 23.1839 35.452C22.8669 35.2312 22.4881 35.1164 22.1019 35.124V35.122ZM13.1259 35.232C12.5859 35.232 12.1539 35.342 11.8299 35.666C11.3959 35.99 11.2899 36.53 11.3979 37.18C11.3979 37.72 11.6119 38.152 11.9379 38.584C12.2639 39.016 12.6939 39.236 13.1259 39.236C13.4519 39.236 13.6679 39.124 13.9919 39.016C14.5319 38.692 14.7479 38.152 14.7479 37.18C14.7479 36.314 14.5319 35.774 14.2079 35.56C13.8915 35.3396 13.5135 35.2248 13.1279 35.232H13.1259ZM13.1259 36.532C13.4519 36.532 13.6679 36.748 13.6679 37.072C13.6679 37.396 13.3419 37.612 13.1279 37.612C12.8019 37.612 12.5879 37.396 12.5879 37.072C12.5879 36.748 12.8019 36.532 13.1279 36.532H13.1259ZM21.8859 36.64C22.2099 36.64 22.4279 36.854 22.4279 37.18C22.4279 37.396 22.2099 37.72 21.8879 37.72C21.5619 37.72 21.3479 37.504 21.3479 37.18C21.3479 36.854 21.5619 36.64 21.8879 36.64H21.8859ZM16.4799 40.856L16.8039 41.504C16.9133 41.7097 17.0598 41.8934 17.2359 42.046C17.3439 42.154 17.5619 42.37 17.7759 42.37H17.9939C18.2099 42.37 18.3159 42.37 18.4239 42.262C18.5319 42.154 18.7519 42.154 18.8599 42.046L19.1819 41.722C19.2899 41.614 19.3979 41.504 19.3979 41.396C19.5059 41.288 19.5059 41.18 19.6139 41.072C19.6139 40.964 19.7219 40.856 19.7219 40.856C19.6139 41.072 19.3979 41.288 19.2899 41.504C19.0739 41.612 18.9679 41.83 18.7499 41.83C18.5359 41.938 18.3179 41.938 18.1019 41.938C17.8859 41.938 17.6699 41.938 17.5619 41.83C17.3459 41.83 17.2359 41.722 17.1279 41.614L16.8039 41.288C16.6959 41.18 16.5879 40.964 16.4799 40.856ZM14.7479 42.912C12.4759 42.912 11.0719 45.94 7.8279 43.236C6.9639 48.536 13.3439 48.968 16.0479 46.696C17.8879 45.076 17.3439 42.804 14.7479 42.912ZM20.4799 42.912C17.8859 42.804 17.3439 45.076 19.1839 46.698C21.8859 48.968 28.2639 48.534 27.3999 43.236C24.1559 45.94 22.8599 42.912 20.4799 42.912Z" fill="white"/>
</svg>
