<svg width="48" height="36" viewBox="0 0 48 36" fill="none" xmlns="http://www.w3.org/2000/svg">
<path d="M9 9C9.79565 9 10.5587 9.31607 11.1213 9.87868C11.6839 10.4413 12 11.2044 12 12V33C12 33.7957 11.6839 34.5587 11.1213 35.1213C10.5587 35.6839 9.79565 36 9 36H3C1.346 36 0 34.656 0 33V12C0 10.344 1.346 9 3 9H9ZM27 0C27.7956 0 28.5587 0.316071 29.1213 0.87868C29.6839 1.44129 30 2.20435 30 3V33C30 33.7957 29.6839 34.5587 29.1213 35.1213C28.5587 35.6839 27.7956 36 27 36H21C19.346 36 18 34.656 18 33V3C18 1.344 19.346 0 21 0H27ZM45 15C45.7957 15 46.5587 15.3161 47.1213 15.8787C47.6839 16.4413 48 17.2044 48 18V33C48 33.7957 47.6839 34.5587 47.1213 35.1213C46.5587 35.6839 45.7957 36 45 36H39C38.2043 36 37.4413 35.6839 36.8787 35.1213C36.3161 34.5587 36 33.7957 36 33V18C36 17.2044 36.3161 16.4413 36.8787 15.8787C37.4413 15.3161 38.2043 15 39 15H45Z" fill="white"/>
</svg>
