<svg width="48" height="48" viewBox="0 0 48 48" fill="none" xmlns="http://www.w3.org/2000/svg">
<path d="M0 0V48H48V0H0ZM19.9 16.004H23.51C23.632 16.004 23.732 16.104 23.732 16.226V31.76C23.732 31.882 23.632 31.982 23.512 31.982H19.9C19.8415 31.982 19.7853 31.9589 19.7437 31.9177C19.7021 31.8765 19.6785 31.8205 19.678 31.762V26.022H15.788V31.762C15.788 31.882 15.688 31.982 15.568 31.982H11.952C11.9231 31.982 11.8945 31.9763 11.8678 31.9653C11.8411 31.9542 11.8169 31.938 11.7964 31.9176C11.776 31.8971 11.7598 31.8729 11.7487 31.8462C11.7377 31.8195 11.732 31.7909 11.732 31.762V16.224C11.732 16.104 11.832 16.004 11.952 16.004H15.564C15.686 16.004 15.784 16.104 15.784 16.224V21.962H19.68V16.222C19.68 16.102 19.78 16.002 19.9 16.002V16.004ZM25.898 16.004H37.454C37.576 16.004 37.676 16.104 37.676 16.224V31.758C37.6765 31.7872 37.6712 31.8163 37.6604 31.8434C37.6496 31.8706 37.6335 31.8953 37.613 31.9162C37.5925 31.937 37.5681 31.9536 37.5411 31.9649C37.5142 31.9762 37.4852 31.982 37.456 31.982H25.896C25.8377 31.982 25.7817 31.9588 25.7404 31.9176C25.6992 31.8763 25.676 31.8203 25.676 31.762V16.222C25.676 16.102 25.776 16.002 25.896 16.002L25.898 16.004Z" fill="white"/>
</svg>
