<svg width="48" height="20" viewBox="0 0 48 20" fill="none" xmlns="http://www.w3.org/2000/svg">
<path d="M0.204 0.696014C0.068 0.696014 0 0.764014 0 0.900014V14.404C0 14.54 0.068 14.608 0.204 14.608H1.614C1.75 14.608 1.82 14.54 1.82 14.402V11.442L2.656 10.642L5.66 14.462C5.69374 14.506 5.73699 14.5418 5.78652 14.5668C5.83604 14.5917 5.89056 14.6051 5.946 14.606H7.764C7.86 14.606 7.914 14.58 7.928 14.526C7.954 14.444 7.94 14.376 7.888 14.322L3.924 9.39802L7.724 5.72001C7.764 5.68001 7.77 5.62001 7.744 5.53601C7.716 5.46801 7.662 5.43602 7.58 5.43602H5.7C5.606 5.43602 5.51 5.48201 5.414 5.57601L1.82 9.21601V0.900014C1.82 0.764014 1.75 0.696014 1.614 0.696014H0.204ZM36.288 0.696014C36.152 0.696014 36.084 0.764014 36.084 0.900014V14.404C36.084 14.54 36.152 14.606 36.288 14.606H37.698C37.834 14.606 37.902 14.538 37.902 14.402V0.900014C37.902 0.764014 37.834 0.696014 37.698 0.696014H36.288ZM11.922 5.25001C10.792 5.25001 9.702 5.61201 8.654 6.33401C8.544 6.44201 8.524 6.53802 8.592 6.62002L9.328 7.66001C9.382 7.75601 9.47 7.77001 9.594 7.70201C10.382 7.15801 11.16 6.88402 11.922 6.88402C12.508 6.88402 12.954 7.06401 13.26 7.41601C13.412 7.59142 13.5261 7.79643 13.5949 8.01811C13.6638 8.2398 13.6859 8.47334 13.66 8.70401C12.338 8.84001 11.35 9.00401 10.696 9.19401C9.036 9.67001 8.204 10.576 8.204 11.91C8.204 12.754 8.51 13.45 9.124 13.994C9.75 14.526 10.492 14.79 11.35 14.79C12.29 14.79 13.06 14.566 13.658 14.116V14.402C13.658 14.54 13.734 14.606 13.884 14.606H15.292C15.428 14.606 15.496 14.54 15.496 14.402V8.74401C15.496 7.42401 15.048 6.46401 14.148 5.86401C13.536 5.45401 12.794 5.25001 11.922 5.25001ZM20.566 5.25001C19.218 5.25001 18.178 5.77601 17.442 6.82401C16.816 7.69601 16.502 8.75801 16.502 10.012C16.502 11.332 16.828 12.428 17.482 13.3C18.232 14.294 19.266 14.79 20.588 14.79C21.65 14.79 22.502 14.526 23.142 13.994V15.056C23.142 16.772 22.316 17.63 20.67 17.63C19.948 17.63 19.206 17.25 18.442 16.486C18.4236 16.4669 18.4016 16.4518 18.3771 16.4415C18.3527 16.4312 18.3265 16.4259 18.3 16.426C18.27 16.4243 18.24 16.4287 18.2118 16.439C18.1836 16.4494 18.1578 16.4653 18.136 16.486L17.176 17.446C17.096 17.57 17.1 17.672 17.196 17.754C17.468 17.984 17.708 18.178 17.912 18.334C18.116 18.492 18.292 18.618 18.442 18.714C19.15 19.108 19.9 19.306 20.69 19.306C22.05 19.306 23.104 18.92 23.846 18.152C24.588 17.382 24.96 16.254 24.96 14.772V5.64001C24.96 5.50401 24.892 5.43602 24.756 5.43602H23.346C23.208 5.43602 23.142 5.50401 23.142 5.64001V6.04801C22.446 5.51601 21.588 5.25001 20.568 5.25001H20.566ZM30.172 5.25001C28.822 5.25001 27.782 5.77601 27.046 6.82401C26.42 7.69601 26.106 8.75801 26.106 10.012C26.106 11.332 26.432 12.428 27.086 13.3C27.836 14.294 28.87 14.79 30.192 14.79C31.254 14.79 32.106 14.526 32.746 13.994V15.056C32.746 16.772 31.922 17.63 30.274 17.63C29.552 17.63 28.81 17.25 28.046 16.486C28.0276 16.4669 28.0056 16.4518 27.9811 16.4415C27.9567 16.4312 27.9305 16.4259 27.904 16.426C27.874 16.4243 27.844 16.4287 27.8158 16.439C27.7876 16.4494 27.7618 16.4653 27.74 16.486L26.78 17.446C26.7 17.57 26.706 17.672 26.8 17.754C27.072 17.984 27.312 18.178 27.516 18.334C27.72 18.492 27.896 18.618 28.048 18.714C28.756 19.108 29.504 19.306 30.294 19.306C31.656 19.306 32.708 18.92 33.45 18.152C34.192 17.382 34.564 16.254 34.564 14.772V5.64001C34.564 5.50401 34.496 5.43602 34.36 5.43602H32.95C32.814 5.43602 32.746 5.50401 32.746 5.64001V6.04801C32.05 5.51601 31.192 5.25001 30.172 5.25001ZM43.662 5.25001C42.356 5.25001 41.292 5.67201 40.476 6.51801C39.59 7.44401 39.148 8.57402 39.148 9.90802C39.148 11.326 39.598 12.488 40.496 13.402C41.422 14.328 42.58 14.79 43.97 14.79C45.262 14.79 46.4 14.424 47.38 13.688C47.49 13.606 47.49 13.512 47.38 13.402L46.42 12.422C46.34 12.34 46.236 12.34 46.114 12.422C45.514 12.842 44.84 13.054 44.092 13.054C43.246 13.054 42.546 12.816 41.988 12.34C41.5047 11.9063 41.1984 11.3095 41.128 10.664H47.768C47.904 10.664 47.972 10.596 47.972 10.46L47.992 10.012C48.062 8.63601 47.66 7.49201 46.788 6.57801C46.3901 6.14872 45.9058 5.80846 45.3671 5.57958C44.8283 5.35071 44.2472 5.23839 43.662 5.25001ZM43.622 6.82401C44.2409 6.81156 44.8406 7.03871 45.296 7.45801C45.788 7.87801 46.038 8.40402 46.052 9.03001H41.13C41.25 8.37602 41.544 7.84402 42.008 7.43602C42.47 7.02802 43.008 6.82401 43.622 6.82401ZM20.772 7.02801C22.012 7.02801 22.8 7.46402 23.142 8.33601V11.706C22.802 12.578 21.99 13.014 20.71 13.014C20.084 13.014 19.572 12.816 19.178 12.422C18.646 11.918 18.382 11.114 18.382 10.01C18.382 8.02201 19.178 7.02801 20.772 7.02801ZM30.376 7.02801C31.616 7.02801 32.406 7.46402 32.746 8.33601V11.706C32.406 12.578 31.594 13.014 30.314 13.014C29.688 13.014 29.178 12.816 28.782 12.422C28.252 11.918 27.986 11.114 27.986 10.01C27.986 8.02201 28.782 7.02801 30.376 7.02801ZM13.658 10.338V12.38C13.086 12.952 12.324 13.204 11.37 13.136C11.0466 13.1155 10.7352 13.0062 10.47 12.82C10.3479 12.7379 10.2447 12.6307 10.1675 12.5055C10.0902 12.3803 10.0406 12.24 10.022 12.094C9.954 11.562 10.254 11.154 10.922 10.868C11.412 10.65 12.322 10.474 13.658 10.338Z" fill="white"/>
</svg>
